<?xml version="1.0" encoding="UTF-8"?>
<svg id="Capa_1" xmlns="http://www.w3.org/2000/svg" xmlns:xlink="http://www.w3.org/1999/xlink" viewBox="0 0 764 293.79">
  <defs>
    <style>
      .cls-1 {
        fill: #fff;
      }

      .cls-2 {
        fill: url(#Degradado_sin_nombre_29);
      }
    </style>
    <linearGradient id="Degradado_sin_nombre_29" data-name="Degradado sin nombre 29" x1="578.12" y1="85.7" x2="576.86" y2="52.8" gradientUnits="userSpaceOnUse">
      <stop offset="0" stop-color="#ea003d"/>
      <stop offset="1" stop-color="#b3003d"/>
    </linearGradient>
  </defs>
  <g>
    <path class="cls-1" d="M151.17,96.81c-2.08-.45-4.46-.68-7.14-.68-6.46,0-12.07,1.3-16.83,3.89s-8.71,5.67-11.84,9.25c-.85.97-1.64,1.93-2.37,2.88h-.7v-14.48h-29.43v103.16h30.3v-53.02c0-3.83.65-7.14,1.96-9.92,1.31-2.78,3.04-5.1,5.18-6.95,2.14-1.86,4.47-3.21,7-4.08,2.52-.86,5-1.29,7.43-1.29,1.98,0,3.79.19,5.42.57,1.63.39,2.76.74,3.4,1.06l12.18-28.96c-.96-.51-2.48-.99-4.56-1.43Z"/>
    <path class="cls-1" d="M247,119.34c-4.22-7.23-9.92-12.88-17.11-16.97-7.19-4.09-15.23-6.14-24.12-6.14s-17.67,2.19-25.4,6.57c-7.74,4.38-13.94,10.54-18.6,18.5-4.67,7.96-7,17.37-7,28.24,0,10.29,2.22,19.41,6.66,27.37,4.44,7.96,10.75,14.19,18.94,18.7,8.18,4.5,17.86,6.76,29.05,6.76,6.84,0,13.21-.82,19.13-2.45,5.91-1.63,10.78-3.75,14.62-6.37l-9.4-22.63c-1.6,1.21-3.74,2.4-6.42,3.55-2.69,1.15-5.63,2.07-8.82,2.78-3.2.7-6.37,1.05-9.5,1.05-5.56,0-10.46-1.23-14.71-3.69-4.26-2.46-7.56-5.93-9.93-10.4-.86-1.63-1.56-3.35-2.11-5.18h69.52c.44-2.11.81-4.41,1.1-6.9.29-2.5.43-5.02.43-7.58,0-9.59-2.11-17.99-6.33-25.21ZM181.76,140.05c.49-2.1,1.15-4.1,2.01-6,1.95-4.31,4.75-7.75,8.39-10.3,3.64-2.56,8.05-3.84,13.23-3.84,3.9,0,7.35.8,10.36,2.4,3,1.6,5.36,3.9,7.09,6.9,1.73,3.01,2.59,6.62,2.59,10.84h-43.67Z"/>
    <path class="cls-1" d="M350.21,120.97c-2.51-5.2-5.73-9.68-9.65-13.43-1.81-1.74-3.77-3.32-5.88-4.74-6.68-4.51-14.46-6.76-23.34-6.76-7.67,0-15.06,1.92-22.15,5.75-7.1,3.84-12.91,9.59-17.45,17.26-4.54,7.67-6.81,17.23-6.81,28.67,0,8.69,1.33,16.25,3.98,22.67,2.65,6.42,6.17,11.75,10.55,15.96,4.37,4.22,9.25,7.36,14.62,9.4,5.37,2.05,10.77,3.07,16.2,3.07,8.69,0,16.48-2.4,23.35-7.19,2.16-1.51,4.17-3.17,6.03-4.99,4.08-3.98,7.47-8.73,10.17-14.24,3.93-8.02,5.9-16.79,5.9-26.31s-1.84-17.52-5.52-25.12ZM329.89,170.77c-3.55,2.27-7.59,3.41-12.13,3.41s-8.53-1.15-11.99-3.45c-3.45-2.3-6.16-5.52-8.15-9.64-1.98-4.12-2.97-8.87-2.97-14.24s1.02-10.11,3.07-14.04,4.84-6.95,8.39-9.06c3.55-2.11,7.62-3.17,12.22-3.17s8.35,1.06,11.8,3.17c3.45,2.11,6.17,5.11,8.15,9.01,1.94,3.83,2.93,8.43,2.97,13.79v25.29l-5.05-7.17c-1.73,2.49-3.83,4.52-6.31,6.1ZM341.06,97.57v9.97h-7l7.48,11.22v58.1l-4.51,9.78h3.07v9.97c0,4.93-1.58,8.9-4.75,11.94-3.16,3.04-7.03,5.24-11.6,6.62-4.57,1.37-8.96,2.06-13.18,2.06-4.92,0-9.75-.77-14.48-2.3-4.73-1.54-8.88-3.39-12.46-5.56l-10.07,23.87c4.15,2.11,9.79,4.2,16.92,6.28,7.13,2.07,14.97,3.11,23.54,3.11,7.99,0,15.31-1.02,21.96-3.06,6.64-2.05,12.41-5.07,17.3-9.06,4.89-4,8.68-8.98,11.36-14.96,2.69-5.98,4.03-12.86,4.03-20.66v-97.32h-27.61Z"/>
    <path class="cls-1" d="M469.58,120.97c-2.52-5.2-5.73-9.68-9.65-13.43-1.81-1.74-3.77-3.32-5.88-4.74-6.68-4.51-14.46-6.76-23.35-6.76-7.67,0-15.05,1.92-22.15,5.75-7.09,3.84-12.91,9.59-17.44,17.26-4.54,7.67-6.81,17.23-6.81,28.67,0,8.69,1.32,16.25,3.98,22.67,2.65,6.42,6.17,11.75,10.54,15.96,4.38,4.22,9.26,7.36,14.62,9.4,5.37,2.05,10.77,3.07,16.21,3.07,8.69,0,16.47-2.4,23.34-7.19,2.16-1.51,4.17-3.17,6.03-4.99,4.09-3.98,7.48-8.73,10.18-14.24,3.93-8.02,5.89-16.79,5.89-26.31s-1.83-17.52-5.51-25.12ZM449.25,170.77c-3.54,2.27-7.59,3.41-12.12,3.41s-8.54-1.15-11.99-3.45c-3.45-2.3-6.17-5.52-8.15-9.64-1.98-4.12-2.97-8.87-2.97-14.24s1.02-10.11,3.07-14.04c2.04-3.93,4.84-6.95,8.39-9.06,3.54-2.11,7.62-3.17,12.22-3.17s8.34,1.06,11.79,3.17c3.46,2.11,6.17,5.11,8.15,9.01,1.98,3.9,2.98,8.6,2.98,14.09,0,.3,0,.61-.01.91v.1c.01,7.99.01,15.99.01,23.98l-5.06-7.18c-1.73,2.49-3.83,4.53-6.31,6.11ZM460.42,97.57v9.97h-6.99l7.47,11.22v58.1l-4.5,9.78h3.07v9.97c0,4.93-1.59,8.9-4.75,11.94-3.16,3.04-7.03,5.24-11.6,6.62-4.57,1.37-8.97,2.06-13.18,2.06-4.93,0-9.75-.77-14.48-2.3-4.73-1.54-8.89-3.39-12.47-5.56l-10.06,23.87c4.15,2.11,9.79,4.2,16.92,6.28,7.13,2.07,14.97,3.11,23.54,3.11,7.99,0,15.3-1.02,21.95-3.06,6.65-2.05,12.42-5.07,17.31-9.06,4.89-4,8.68-8.98,11.36-14.96,2.69-5.98,4.03-12.86,4.03-20.66v-97.32h-27.62Z"/>
    <path class="cls-1" d="M547.24,176.67c-.67.19-1.52.29-2.54.29-1.72,0-3.07-.34-4.03-1.01-.95-.67-1.66-1.6-2.11-2.78-.44-1.18-.67-2.6-.67-4.27V53.18h-30.29v120.33c0,5.24,1.02,10.03,3.06,14.38,2.05,4.35,5.1,7.85,9.16,10.5,4.06,2.65,9.09,3.98,15.1,3.98,2.56,0,5.07-.23,7.53-.68,2.46-.44,4.61-1.02,6.47-1.72v-23.78c-.45.13-1.01.29-1.68.48Z"/>
    <path class="cls-1" d="M562.44,97.67v103.16h30.29v-103.16h-30.29Z"/>
    <path class="cls-1" d="M604.62,97.67v25.12h71.43v-25.12h-71.43ZM671.36,174.27c-1.09.58-2.32,1.06-3.7,1.44-1.37.39-2.82.58-4.36.58-3.13,0-5.77-.99-7.91-2.97-2.14-1.99-3.21-5.15-3.21-9.5v-95.87h-30.3v96.64c0,11.06,3.12,20.12,9.35,27.18,6.23,7.07,15.68,10.6,28.33,10.6,3.9,0,7.75-.36,11.56-1.06,3.8-.7,7.14-1.76,10.01-3.16l-9.77-23.88Z"/>
  </g>
  <path class="cls-2" d="M592.74,71.86v.03c-.04,6.33-3.81,12.31-10.02,14.5-1.69.59-3.5.91-5.37.88-.92-.01-1.82-.11-2.7-.28-7.34-1.41-12.16-8.01-12.22-15.14v-.02c0-.13,0-.25,0-.38.11-2.78,1.22-5.43,3.08-7.49l4.86-5.38,6.41-7.1c.42-.46,1.15-.46,1.57,0l6.36,7.06s0,0,0,0l4.94,5.48c1.92,2.13,3.03,4.88,3.08,7.76,0,.02,0,.04,0,.06Z"/>
</svg>