<?xml version="1.0" encoding="UTF-8"?>
<svg id="Capa_1" xmlns="http://www.w3.org/2000/svg" xmlns:xlink="http://www.w3.org/1999/xlink" viewBox="0 0 877.04 355.07">
  <defs>
    <style>
      .cls-1 {
        fill: url(#Degradado_sin_nombre_6);
      }

      .cls-2 {
        fill: url(#Degradado_sin_nombre_5);
      }

      .cls-3 {
        clip-path: url(#clippath-6);
      }

      .cls-4 {
        clip-path: url(#clippath-7);
      }

      .cls-5 {
        fill: #842123;
      }

      .cls-6 {
        clip-path: url(#clippath-4);
      }

      .cls-7 {
        fill: #fff;
      }

      .cls-8 {
        fill: url(#Degradado_sin_nombre_43-2);
      }

      .cls-9 {
        fill: url(#Degradado_sin_nombre_43);
      }

      .cls-10 {
        fill: none;
      }

      .cls-11 {
        fill: url(#Degradado_sin_nombre_4);
      }

      .cls-12 {
        clip-path: url(#clippath-1);
      }

      .cls-13 {
        clip-path: url(#clippath-5);
      }

      .cls-14 {
        clip-path: url(#clippath-3);
      }

      .cls-15 {
        fill: url(#Degradado_sin_nombre_29-2);
      }

      .cls-16 {
        fill: url(#Degradado_sin_nombre_5-3);
      }

      .cls-17 {
        fill: #ea003d;
      }

      .cls-18 {
        fill: #ff5f82;
      }

      .cls-19 {
        clip-path: url(#clippath-2);
      }

      .cls-20 {
        fill: #bbcfda;
      }

      .cls-21 {
        fill: url(#Degradado_sin_nombre_5-2);
      }

      .cls-22 {
        fill: url(#Degradado_sin_nombre_29);
      }

      .cls-23 {
        clip-path: url(#clippath);
      }

      .cls-24 {
        fill: url(#Degradado_sin_nombre_5-4);
      }

      .cls-25 {
        fill: #f9b7c5;
      }
    </style>
    <linearGradient id="Degradado_sin_nombre_29" data-name="Degradado sin nombre 29" x1="174.96" y1="306.18" x2="165.09" y2="48.7" gradientUnits="userSpaceOnUse">
      <stop offset="0" stop-color="#ea003d"/>
      <stop offset="1" stop-color="#b3003d"/>
    </linearGradient>
    <clipPath id="clippath">
      <path class="cls-10" d="M102.86,172.89c16.43,0,29.75,12.76,29.75,28.49s-13.32,28.49-29.75,28.49-29.75-12.76-29.75-28.49,13.32-28.49,29.75-28.49"/>
    </clipPath>
    <radialGradient id="Degradado_sin_nombre_5" data-name="Degradado sin nombre 5" cx="-707.21" cy="458.76" fx="-707.21" fy="458.76" r=".55" gradientTransform="translate(82141 -47389.01) scale(116 103.69)" gradientUnits="userSpaceOnUse">
      <stop offset="0" stop-color="#feffff"/>
      <stop offset=".4" stop-color="#feffff"/>
      <stop offset=".51" stop-color="#f9fcfc"/>
      <stop offset=".62" stop-color="#edf3f5"/>
      <stop offset=".7" stop-color="#dee9ec"/>
      <stop offset=".72" stop-color="#d8e4e8"/>
      <stop offset=".76" stop-color="#ccd8df"/>
      <stop offset=".8" stop-color="#c8d5dd"/>
      <stop offset=".83" stop-color="#ccd6de"/>
      <stop offset=".85" stop-color="#d8dbe2"/>
      <stop offset=".88" stop-color="#ede3e9"/>
      <stop offset=".9" stop-color="#ffebef"/>
      <stop offset="1" stop-color="#ffebef"/>
    </radialGradient>
    <clipPath id="clippath-1">
      <path class="cls-10" d="M240.03,172.89c16.43,0,29.75,12.76,29.75,28.49s-13.32,28.49-29.75,28.49-29.75-12.76-29.75-28.49,13.32-28.49,29.75-28.49"/>
    </clipPath>
    <radialGradient id="Degradado_sin_nombre_5-2" data-name="Degradado sin nombre 5" cx="-706.02" fx="-706.02" r=".55" xlink:href="#Degradado_sin_nombre_5"/>
    <clipPath id="clippath-2">
      <path class="cls-10" d="M170.89,164.82c44.95,0,81.39,27.33,81.39,61.04s-36.44,61.04-81.39,61.04-81.39-27.33-81.39-61.04,36.44-61.04,81.39-61.04"/>
    </clipPath>
    <radialGradient id="Degradado_sin_nombre_5-3" data-name="Degradado sin nombre 5" cx="-711.82" cy="458.69" fx="-711.82" fy="458.69" r=".55" gradientTransform="translate(226055.46 -101712.24) scale(317.33 222.13)" xlink:href="#Degradado_sin_nombre_5"/>
    <clipPath id="clippath-3">
      <path class="cls-10" d="M146.83,220.83c-.45,9.68-6.87,13.19-14.35,13.19s-13.18-5.26-12.73-14.94c.45-9.68,6.87-16.01,14.35-16.01s13.18,8.08,12.73,17.76Z"/>
    </clipPath>
    <radialGradient id="Degradado_sin_nombre_43" data-name="Degradado sin nombre 43" cx="-691.16" cy="457.77" fx="-691.16" fy="457.77" r=".55" gradientTransform="translate(18458.78 -17494.67) scale(26.51 38.71)" gradientUnits="userSpaceOnUse">
      <stop offset="0" stop-color="#ff423d"/>
      <stop offset=".5" stop-color="#eb0749"/>
      <stop offset=".7" stop-color="#fc1e3d"/>
      <stop offset=".82" stop-color="#f43f57"/>
      <stop offset=".92" stop-color="#e53847"/>
      <stop offset="1" stop-color="#d4031f"/>
    </radialGradient>
    <clipPath id="clippath-4">
      <path class="cls-10" d="M194.95,220.83c.45,9.68,6.87,13.19,14.35,13.19s13.18-5.26,12.73-14.94c-.45-9.68-6.87-16.01-14.35-16.01s-13.18,8.08-12.73,17.76Z"/>
    </clipPath>
    <radialGradient id="Degradado_sin_nombre_43-2" data-name="Degradado sin nombre 43" cx="-733.73" fx="-733.73" r=".55" gradientTransform="translate(-19245.7 -17494.67) rotate(-180) scale(26.51 -38.71)" xlink:href="#Degradado_sin_nombre_43"/>
    <clipPath id="clippath-5">
      <path class="cls-10" d="M170.89,266.95c9.9,0,19.39-.49,28.17-1.37,1.5-.15,2.45-1.71,1.87-3.1-4.92-11.74-16.51-19.99-30.04-19.99s-25.12,8.25-30.04,19.99c-.58,1.39.37,2.95,1.87,3.1,8.78.89,18.27,1.37,28.18,1.37h0Z"/>
    </clipPath>
    <radialGradient id="Degradado_sin_nombre_4" data-name="Degradado sin nombre 4" cx="-719.63" cy="459.42" fx="-719.63" fy="459.42" r=".55" gradientTransform="translate(-67106.44 28586.57) rotate(-180) scale(93.49 61.7)" gradientUnits="userSpaceOnUse">
      <stop offset="0" stop-color="#172e35"/>
      <stop offset=".29" stop-color="#0e1c21"/>
      <stop offset=".73" stop-color="#030708"/>
      <stop offset="1" stop-color="#000"/>
    </radialGradient>
    <clipPath id="clippath-6">
      <path class="cls-10" d="M215.47,116.11c11.16,0,20.2,9.05,20.2,20.2s-9.05,20.2-20.2,20.2-20.2-9.05-20.2-20.2,9.05-20.2,20.2-20.2"/>
    </clipPath>
    <radialGradient id="Degradado_sin_nombre_5-4" data-name="Degradado sin nombre 5" cx="-707.17" cy="459.34" fx="-707.17" fy="459.34" r=".55" gradientTransform="translate(58249.82 -36823.92) scale(82.07 80.42)" xlink:href="#Degradado_sin_nombre_5"/>
    <clipPath id="clippath-7">
      <path class="cls-10" d="M170.6,167.4c-2.42,0-4.38-1.01-4.38-2.57,0-18.1,14.72-32.82,32.82-32.82,2.42,0,4.38,1.96,4.38,4.38s-1.96,4.38-4.38,4.38c-13.27,0-24.07,10.79-24.07,24.07,0,1.56-1.96,2.57-4.38,2.57h0Z"/>
    </clipPath>
    <radialGradient id="Degradado_sin_nombre_6" data-name="Degradado sin nombre 6" cx="-705.53" cy="458.91" fx="-705.53" fy="458.91" r=".55" gradientTransform="translate(47654.36 -30705.58) scale(67.26)" gradientUnits="userSpaceOnUse">
      <stop offset="0" stop-color="#7a9299"/>
      <stop offset=".48" stop-color="#7a9299"/>
      <stop offset=".67" stop-color="#172e35"/>
      <stop offset=".75" stop-color="#000"/>
      <stop offset=".82" stop-color="#172e35"/>
      <stop offset="1" stop-color="#172e35"/>
    </radialGradient>
    <linearGradient id="Degradado_sin_nombre_29-2" data-name="Degradado sin nombre 29" x1="714.84" y1="156.52" x2="743.13" y2="156.52" xlink:href="#Degradado_sin_nombre_29"/>
  </defs>
  <g>
    <path class="cls-22" d="M289.43,197.86v.24c-.29,49.54-29.83,96.34-78.4,113.49-13.21,4.66-27.36,7.11-42.02,6.91-7.2-.1-14.25-.84-21.12-2.15-57.42-11.01-95.19-62.67-95.67-118.48v-.13c.01-.99.04-1.98.08-2.96.83-21.79,9.54-42.52,24.09-58.64l38.03-42.1,50.18-55.56c3.29-3.64,9-3.64,12.28,0l49.77,55.23s0,0,0,0l38.67,42.91c15.02,16.66,23.73,38.23,24.1,60.75,0,.16,0,.32,0,.47Z"/>
    <g class="cls-23">
      <rect class="cls-2" x="73.1" y="172.89" width="59.51" height="56.99"/>
    </g>
    <g class="cls-12">
      <rect class="cls-21" x="210.28" y="172.89" width="59.51" height="56.99"/>
    </g>
    <g class="cls-19">
      <rect class="cls-16" x="89.5" y="164.82" width="162.78" height="122.09"/>
    </g>
    <path class="cls-5" d="M146.83,219.93c-.47,10.34-7.34,14.09-15.33,14.09s-14.09-5.3-13.61-15.64c.47-10.34,7.34-17.19,15.33-17.19s14.09,8.38,13.61,18.73Z"/>
    <path class="cls-5" d="M223.9,218.39c.47,10.34-5.62,15.64-13.61,15.64s-14.85-3.75-15.33-14.09c-.47-10.34,5.62-18.73,13.61-18.73s14.85,6.84,15.33,17.19Z"/>
    <g class="cls-14">
      <rect class="cls-9" x="119.3" y="203.08" width="27.98" height="30.95"/>
    </g>
    <g class="cls-6">
      <rect class="cls-8" x="194.5" y="203.08" width="27.98" height="30.95"/>
    </g>
    <path class="cls-25" d="M138.75,208.54c1.75,0,3.17,1.55,3.17,3.45s-1.42,3.45-3.17,3.45-3.17-1.55-3.17-3.45,1.42-3.45,3.17-3.45"/>
    <path class="cls-25" d="M214.02,208.54c1.75,0,3.17,1.55,3.17,3.45s-1.42,3.45-3.17,3.45-3.17-1.55-3.17-3.45,1.42-3.45,3.17-3.45"/>
    <path class="cls-20" d="M170.89,268.02c10.09,0,19.76-.49,28.71-1.37,1.53-.15,2.5-1.71,1.9-3.1-5.01-11.74-16.83-19.99-30.61-19.99s-25.6,8.25-30.61,19.99c-.59,1.39.38,2.95,1.9,3.1,8.94.89,18.62,1.37,28.71,1.37Z"/>
    <path class="cls-7" d="M170.89,265.78c10.06,0,19.7-.49,28.62-1.4,1.52-.15,2.49-1.74,1.9-3.15-5-11.93-16.78-20.31-30.52-20.31s-25.52,8.38-30.52,20.31c-.59,1.41.38,2.99,1.9,3.15,8.92.9,18.56,1.4,28.62,1.4Z"/>
    <g class="cls-13">
      <rect class="cls-11" x="140.26" y="242.48" width="61.25" height="24.47"/>
    </g>
    <g class="cls-3">
      <rect class="cls-24" x="195.26" y="116.11" width="40.41" height="40.41"/>
    </g>
    <g class="cls-4">
      <rect class="cls-1" x="166.22" y="132" width="37.21" height="35.4"/>
    </g>
    <path class="cls-18" d="M141.51,225.62c0,3.74-3.98,5.43-8.9,5.43s-8.9-1.68-8.9-5.43,3.98-6.78,8.9-6.78,8.9,3.04,8.9,6.78"/>
    <path class="cls-18" d="M218.07,225.62c0,3.74-3.98,5.43-8.9,5.43s-8.9-1.68-8.9-5.43,3.98-6.78,8.9-6.78,8.9,3.04,8.9,6.78"/>
    <path class="cls-5" d="M219.56,249.34c1.03,2.89-.4,6.16-3.3,7.17-.61.21-1.27.33-1.95.32-.33,0-.66-.04-.98-.1-3.34-.63-5.24-4.21-4.1-7.41,1.29-3.26,2.58-6.52,3.87-9.78,2.15,3.27,4.3,6.53,6.45,9.8Z"/>
    <path class="cls-17" d="M218.27,249.34c1.03,2.89-.4,6.16-3.3,7.17-.61.21-1.27.33-1.95.32-.33,0-.66-.04-.98-.1-3.34-.63-5.24-4.21-4.1-7.41l5.16-9.78,5.17,9.8Z"/>
    <path class="cls-5" d="M123.53,249.34c-1.03,2.89.4,6.16,3.3,7.17.61.21,1.27.33,1.95.32.33,0,.66-.04.98-.1,3.34-.63,5.24-4.21,4.1-7.41-1.29-3.26-2.58-6.52-3.87-9.78-2.15,3.27-4.3,6.53-6.45,9.8Z"/>
    <path class="cls-17" d="M124.82,249.34c-1.03,2.89.4,6.16,3.3,7.17.61.21,1.27.33,1.95.32.33,0,.66-.04.98-.1,3.34-.63,5.24-4.21,4.1-7.41l-5.16-9.78-5.17,9.8Z"/>
  </g>
  <g>
    <g>
      <path class="cls-7" d="M381.45,179.59c-1.69-.36-3.63-.55-5.82-.55-5.26,0-9.83,1.06-13.71,3.17-3.88,2.11-7.1,4.62-9.65,7.54-.69.79-1.34,1.57-1.94,2.34h-.56v-11.8h-23.99v84.08h24.69v-43.21c0-3.12.53-5.82,1.6-8.09,1.07-2.26,2.48-4.15,4.22-5.66,1.75-1.51,3.65-2.62,5.71-3.32,2.05-.7,4.07-1.06,6.05-1.06,1.62,0,3.09.16,4.42.47,1.33.31,2.25.6,2.77.86l9.92-23.6c-.78-.41-2.01-.8-3.71-1.17Z"/>
      <path class="cls-7" d="M459.56,197.95c-3.44-5.88-8.09-10.49-13.95-13.83-5.86-3.33-12.41-5-19.65-5s-14.41,1.79-20.71,5.35c-6.31,3.57-11.36,8.6-15.16,15.09-3.81,6.48-5.71,14.15-5.71,23.01,0,8.39,1.81,15.82,5.43,22.31,3.62,6.48,8.77,11.56,15.44,15.24,6.67,3.67,14.56,5.51,23.67,5.51,5.58,0,10.77-.67,15.59-2,4.82-1.33,8.8-3.06,11.92-5.19l-7.66-18.45c-1.3,1-3.04,1.96-5.23,2.9-2.19.93-4.59,1.69-7.19,2.26-2.61.58-5.19.86-7.74.86-4.53,0-8.53-1-11.99-3.01-3.47-2-6.16-4.83-8.09-8.48-.7-1.33-1.28-2.73-1.72-4.22h56.65c.37-1.71.67-3.59.9-5.62.24-2.03.35-4.09.35-6.17,0-7.82-1.72-14.67-5.15-20.56ZM406.4,214.83c.38-1.71.92-3.33,1.62-4.88,1.59-3.52,3.87-6.32,6.84-8.4s6.56-3.13,10.78-3.13c3.18,0,5.99.66,8.44,1.96,2.45,1.3,4.38,3.17,5.78,5.62,1.41,2.45,2.11,5.39,2.11,8.83h-35.57Z"/>
      <path class="cls-7" d="M543.68,199.28c-2.05-4.24-4.67-7.89-7.87-10.94-1.47-1.42-3.07-2.71-4.79-3.87-5.45-3.67-11.79-5.5-19.03-5.5-6.25,0-12.27,1.56-18.05,4.68-5.78,3.13-10.52,7.82-14.22,14.07-3.7,6.25-5.55,14.04-5.55,23.36,0,7.09,1.08,13.25,3.24,18.48,2.16,5.24,5.03,9.58,8.6,13.02,3.57,3.43,7.54,5.99,11.91,7.65,4.38,1.67,8.78,2.5,13.21,2.5,7.08,0,13.43-1.95,19.03-5.86,1.76-1.22,3.4-2.58,4.92-4.06,3.32-3.25,6.08-7.12,8.28-11.6,3.21-6.54,4.81-13.69,4.81-21.45s-1.5-14.28-4.49-20.48ZM527.11,239.88c-2.89,1.85-6.19,2.77-9.88,2.77s-6.96-.94-9.77-2.81c-2.82-1.88-5.03-4.5-6.64-7.86-1.62-3.36-2.43-7.22-2.43-11.6s.84-8.24,2.5-11.45c1.67-3.2,3.95-5.66,6.84-7.38,2.89-1.72,6.21-2.58,9.96-2.58s6.8.86,9.62,2.58c2.81,1.72,5.02,4.17,6.64,7.34,1.58,3.12,2.39,6.87,2.41,11.25.01.08.01.16.01.24v20.37l-4.13-5.86c-1.39,2.03-3.11,3.7-5.13,4.99ZM536.21,180.22v8.12h-5.7l6.09,9.15v47.35l-3.67,7.97h2.5v8.13c0,4.01-1.29,7.25-3.87,9.73-2.57,2.47-5.73,4.27-9.45,5.39-3.73,1.12-7.31,1.68-10.74,1.68-4.02,0-7.95-.63-11.8-1.88-3.86-1.25-7.25-2.76-10.16-4.53l-8.21,19.46c3.39,1.72,7.98,3.42,13.79,5.12,5.81,1.69,12.21,2.53,19.19,2.53,6.51,0,12.47-.83,17.89-2.5,5.42-1.66,10.12-4.13,14.11-7.38,3.98-3.26,7.07-7.32,9.26-12.19s3.28-10.48,3.28-16.84v-79.31h-22.51Z"/>
      <path class="cls-7" d="M640.96,199.28c-2.04-4.24-4.66-7.89-7.86-10.94-1.48-1.42-3.07-2.71-4.8-3.87-5.44-3.67-11.78-5.5-19.02-5.5-6.25,0-12.27,1.56-18.05,4.68-5.79,3.13-10.53,7.82-14.23,14.07-3.7,6.25-5.54,14.04-5.54,23.36,0,7.09,1.08,13.25,3.24,18.48,2.16,5.24,5.03,9.58,8.6,13.02,3.56,3.43,7.54,5.99,11.91,7.65,4.38,1.67,8.78,2.5,13.21,2.5,7.08,0,13.43-1.95,19.03-5.86,1.76-1.22,3.4-2.58,4.92-4.06,3.32-3.25,6.08-7.12,8.28-11.6,3.21-6.54,4.81-13.69,4.81-21.45s-1.5-14.28-4.5-20.48ZM624.4,239.88c-2.89,1.85-6.19,2.77-9.89,2.77s-6.95-.94-9.76-2.81c-2.82-1.88-5.03-4.5-6.65-7.86-1.61-3.36-2.42-7.22-2.42-11.6s.83-8.24,2.5-11.45c1.67-3.2,3.95-5.66,6.84-7.38,2.89-1.72,6.21-2.58,9.96-2.58s6.8.86,9.61,2.58c2.82,1.72,5.03,4.17,6.65,7.34,1.58,3.12,2.39,6.87,2.41,11.25.01.08.01.16.01.24v20.37l-4.13-5.86c-1.39,2.03-3.11,3.7-5.13,4.99ZM633.5,180.22v8.12h-5.7l6.09,9.15v47.35l-3.67,7.97h2.5v8.13c0,4.01-1.29,7.25-3.87,9.73-2.58,2.47-5.73,4.27-9.45,5.39-3.73,1.12-7.31,1.68-10.75,1.68-4.01,0-7.94-.63-11.8-1.88-3.85-1.25-7.24-2.76-10.16-4.53l-8.2,19.46c3.39,1.72,7.98,3.42,13.79,5.12,5.81,1.69,12.2,2.53,19.19,2.53,6.51,0,12.47-.83,17.89-2.5,5.42-1.66,10.12-4.13,14.1-7.38,3.99-3.26,7.08-7.32,9.26-12.19,2.19-4.87,3.29-10.48,3.29-16.84v-79.31h-22.51Z"/>
      <path class="cls-7" d="M704.26,244.68c-.55.16-1.24.24-2.07.24-1.41,0-2.5-.28-3.28-.82-.78-.55-1.36-1.3-1.72-2.27-.37-.96-.55-2.12-.55-3.48v-94.31h-24.69v98.06c0,4.28.83,8.18,2.5,11.73,1.67,3.54,4.15,6.39,7.46,8.55,3.31,2.16,7.41,3.25,12.31,3.25,2.08,0,4.13-.19,6.13-.55,2.01-.37,3.77-.83,5.28-1.41v-19.38c-.37.11-.82.24-1.37.39Z"/>
      <path class="cls-7" d="M716.64,180.29v84.08h24.7v-84.08h-24.7Z"/>
      <path class="cls-7" d="M751.03,180.29v20.48h58.21v-20.48h-58.21ZM805.41,242.73c-.88.47-1.88.86-3,1.17s-2.31.47-3.56.47c-2.55,0-4.7-.81-6.45-2.42-1.74-1.62-2.61-4.19-2.61-7.74v-78.14h-24.7v78.77c0,9.01,2.54,16.39,7.62,22.15,5.08,5.76,12.78,8.64,23.09,8.64,3.18,0,6.32-.29,9.42-.86,3.1-.58,5.82-1.44,8.16-2.58l-7.97-19.46Z"/>
    </g>
    <path class="cls-7" d="M536.37,220.14v.24c0-.08,0-.16-.01-.24h.01Z"/>
    <path class="cls-7" d="M633.66,220.14v.24c0-.08,0-.16-.01-.24h.01Z"/>
  </g>
  <circle class="cls-15" cx="728.99" cy="156.52" r="14.15"/>
</svg>