<?xml version="1.0" encoding="UTF-8"?>
<svg id="Capa_1" xmlns="http://www.w3.org/2000/svg" xmlns:xlink="http://www.w3.org/1999/xlink" viewBox="0 0 1032 405.33">
  <defs>
    <style>
      .cls-1 {
        fill: url(#Degradado_sin_nombre_6);
      }

      .cls-2 {
        fill: url(#Degradado_sin_nombre_5);
      }

      .cls-3 {
        clip-path: url(#clippath-6);
      }

      .cls-4 {
        clip-path: url(#clippath-7);
      }

      .cls-5 {
        fill: #842123;
      }

      .cls-6 {
        clip-path: url(#clippath-4);
      }

      .cls-7 {
        fill: #fff;
      }

      .cls-8 {
        fill: url(#Degradado_sin_nombre_43-2);
      }

      .cls-9 {
        fill: url(#Degradado_sin_nombre_43);
      }

      .cls-10 {
        fill: none;
      }

      .cls-11 {
        fill: url(#Degradado_sin_nombre_4);
      }

      .cls-12 {
        clip-path: url(#clippath-5);
      }

      .cls-13 {
        clip-path: url(#clippath-3);
      }

      .cls-14 {
        fill: #ea003d;
      }

      .cls-15 {
        fill: #ff5f82;
      }

      .cls-16 {
        clip-path: url(#clippath-2);
      }

      .cls-17 {
        fill: #bbcfda;
      }

      .cls-18 {
        fill: url(#Degradado_sin_nombre_5-2);
      }

      .cls-19 {
        fill: #f9b7c5;
      }
    </style>
    <clipPath id="clippath-2">
      <path class="cls-10" d="M224.04,155.38c50.56,0,91.55,30.74,91.55,68.66s-40.99,68.66-91.55,68.66-91.55-30.74-91.55-68.66,40.99-68.66,91.55-68.66"/>
    </clipPath>
    <radialGradient id="Degradado_sin_nombre_5" data-name="Degradado sin nombre 5" cx="-860.25" cy="458.65" fx="-860.25" fy="458.65" r=".62" gradientTransform="translate(273211.8 -101712.24) scale(317.33 222.13)" gradientUnits="userSpaceOnUse">
      <stop offset="0" stop-color="#feffff"/>
      <stop offset=".4" stop-color="#feffff"/>
      <stop offset=".51" stop-color="#f9fcfc"/>
      <stop offset=".62" stop-color="#edf3f5"/>
      <stop offset=".7" stop-color="#dee9ec"/>
      <stop offset=".72" stop-color="#d8e4e8"/>
      <stop offset=".76" stop-color="#ccd8df"/>
      <stop offset=".8" stop-color="#c8d5dd"/>
      <stop offset=".83" stop-color="#ccd6de"/>
      <stop offset=".85" stop-color="#d8dbe2"/>
      <stop offset=".88" stop-color="#ede3e9"/>
      <stop offset=".9" stop-color="#ffebef"/>
      <stop offset="1" stop-color="#ffebef"/>
    </radialGradient>
    <clipPath id="clippath-3">
      <path class="cls-10" d="M196.98,218.38c-.5,10.89-7.73,14.84-16.14,14.84s-14.83-5.91-14.32-16.8c.5-10.89,7.73-18.01,16.14-18.01s14.83,9.08,14.32,19.97Z"/>
    </clipPath>
    <radialGradient id="Degradado_sin_nombre_43" data-name="Degradado sin nombre 43" cx="-832.78" cy="457.72" fx="-832.78" fy="457.72" r=".62" gradientTransform="translate(22262.08 -17494.67) scale(26.51 38.71)" gradientUnits="userSpaceOnUse">
      <stop offset="0" stop-color="#ff423d"/>
      <stop offset=".5" stop-color="#eb0749"/>
      <stop offset=".7" stop-color="#fc1e3d"/>
      <stop offset=".82" stop-color="#f43f57"/>
      <stop offset=".92" stop-color="#e53847"/>
      <stop offset="1" stop-color="#d4031f"/>
    </radialGradient>
    <clipPath id="clippath-4">
      <path class="cls-10" d="M251.11,218.38c.5,10.89,7.73,14.84,16.14,14.84s14.83-5.91,14.32-16.8c-.5-10.89-7.73-18.01-16.14-18.01s-14.83,9.08-14.32,19.97Z"/>
    </clipPath>
    <radialGradient id="Degradado_sin_nombre_43-2" data-name="Degradado sin nombre 43" cx="-890.61" fx="-890.61" r=".62" gradientTransform="translate(-23347.15 -17494.67) rotate(-180) scale(26.51 -38.71)" xlink:href="#Degradado_sin_nombre_43"/>
    <clipPath id="clippath-5">
      <path class="cls-10" d="M224.04,270.25c11.14,0,21.81-.55,31.69-1.55,1.69-.17,2.76-1.92,2.1-3.49-5.53-13.21-18.57-22.48-33.79-22.48s-28.26,9.28-33.79,22.48c-.66,1.57.41,3.32,2.1,3.49,9.87,1,20.55,1.55,31.69,1.55h0Z"/>
    </clipPath>
    <radialGradient id="Degradado_sin_nombre_4" data-name="Degradado sin nombre 4" cx="-870.87" cy="459.42" fx="-870.87" fy="459.42" r=".62" gradientTransform="translate(-81192.18 28586.57) rotate(-180) scale(93.49 61.7)" gradientUnits="userSpaceOnUse">
      <stop offset="0" stop-color="#172e35"/>
      <stop offset=".29" stop-color="#0e1c21"/>
      <stop offset=".73" stop-color="#030708"/>
      <stop offset="1" stop-color="#000"/>
    </radialGradient>
    <clipPath id="clippath-6">
      <path class="cls-10" d="M274.18,100.6c12.55,0,22.72,10.17,22.72,22.72s-10.17,22.72-22.72,22.72-22.72-10.17-22.72-22.72,10.17-22.72,22.72-22.72"/>
    </clipPath>
    <radialGradient id="Degradado_sin_nombre_5-2" data-name="Degradado sin nombre 5" cx="-853.71" cy="459.15" fx="-853.71" fy="459.15" r=".62" gradientTransform="translate(70334.4 -36823.92) scale(82.07 80.42)" xlink:href="#Degradado_sin_nombre_5"/>
    <clipPath id="clippath-7">
      <path class="cls-10" d="M223.72,158.28c-2.72,0-4.93-1.14-4.93-2.89,0-20.36,16.56-36.92,36.92-36.92,2.72,0,4.93,2.21,4.93,4.93s-2.21,4.93-4.93,4.93c-14.92,0-27.07,12.14-27.07,27.07,0,1.75-2.21,2.89-4.93,2.89h0Z"/>
    </clipPath>
    <radialGradient id="Degradado_sin_nombre_6" data-name="Degradado sin nombre 6" cx="-851.54" cy="458.77" fx="-851.54" fy="458.77" r=".62" gradientTransform="translate(57532.65 -30705.58) scale(67.26)" gradientUnits="userSpaceOnUse">
      <stop offset="0" stop-color="#7a9299"/>
      <stop offset=".48" stop-color="#7a9299"/>
      <stop offset=".67" stop-color="#172e35"/>
      <stop offset=".75" stop-color="#000"/>
      <stop offset=".82" stop-color="#172e35"/>
      <stop offset="1" stop-color="#172e35"/>
    </radialGradient>
  </defs>
  <g>
    <path class="cls-14" d="M86.64,197.8c0,75.84,61.48,137.32,137.32,137.32s137.32-61.48,137.32-137.32S299.8,60.48,223.96,60.48,86.64,121.96,86.64,197.8"/>
    <g class="cls-16">
      <rect class="cls-2" x="132.5" y="155.38" width="183.09" height="137.32"/>
    </g>
    <path class="cls-5" d="M196.98,217.37c-.53,11.63-8.25,15.85-17.25,15.85s-15.84-5.96-15.3-17.59c.53-11.63,8.25-19.33,17.25-19.33s15.84,9.43,15.3,21.07Z"/>
    <path class="cls-5" d="M283.66,215.63c.53,11.63-6.32,17.59-15.3,17.59s-16.71-4.22-17.25-15.85c-.53-11.63,6.32-21.07,15.3-21.07s16.71,7.69,17.25,19.33Z"/>
    <g class="cls-13">
      <rect class="cls-9" x="166.02" y="198.41" width="31.47" height="34.81"/>
    </g>
    <g class="cls-6">
      <rect class="cls-8" x="250.6" y="198.41" width="31.47" height="34.81"/>
    </g>
    <path class="cls-19" d="M187.9,204.55c1.97,0,3.56,1.74,3.56,3.89s-1.59,3.89-3.56,3.89-3.56-1.74-3.56-3.89,1.59-3.89,3.56-3.89"/>
    <path class="cls-19" d="M272.55,204.55c1.97,0,3.56,1.74,3.56,3.89s-1.59,3.89-3.56,3.89-3.56-1.74-3.56-3.89,1.59-3.89,3.56-3.89"/>
    <path class="cls-17" d="M224.04,271.46c11.35,0,22.23-.55,32.29-1.55,1.72-.17,2.81-1.92,2.14-3.49-5.64-13.21-18.93-22.48-34.43-22.48s-28.8,9.28-34.43,22.48c-.67,1.57.42,3.32,2.14,3.49,10.06,1,20.94,1.55,32.29,1.55Z"/>
    <path class="cls-7" d="M224.04,268.94c11.32,0,22.16-.55,32.19-1.57,1.71-.17,2.8-1.95,2.14-3.54-5.62-13.42-18.87-22.84-34.32-22.84s-28.7,9.42-34.32,22.84c-.67,1.59.42,3.37,2.14,3.54,10.03,1.02,20.87,1.57,32.19,1.57Z"/>
    <g class="cls-12">
      <rect class="cls-11" x="189.59" y="242.73" width="68.89" height="27.52"/>
    </g>
    <g class="cls-3">
      <rect class="cls-18" x="251.46" y="100.6" width="45.45" height="45.45"/>
    </g>
    <g class="cls-4">
      <rect class="cls-1" x="218.79" y="118.47" width="41.85" height="39.82"/>
    </g>
    <path class="cls-15" d="M191,223.77c0,4.21-4.48,6.1-10.01,6.1s-10.01-1.89-10.01-6.1,4.48-7.63,10.01-7.63,10.01,3.42,10.01,7.63"/>
    <path class="cls-15" d="M277.11,223.77c0,4.21-4.48,6.1-10.01,6.1s-10.01-1.89-10.01-6.1,4.48-7.63,10.01-7.63,10.01,3.42,10.01,7.63"/>
    <path class="cls-5" d="M278.78,250.45c1.16,3.25-.45,6.92-3.71,8.06-.69.24-1.43.37-2.19.36-.37,0-.74-.04-1.1-.11-3.76-.71-5.9-4.73-4.61-8.33,1.45-3.67,2.9-7.33,4.36-11,2.42,3.67,4.84,7.35,7.26,11.02Z"/>
    <path class="cls-14" d="M277.33,250.45c1.16,3.25-.45,6.92-3.71,8.06-.69.24-1.43.37-2.19.36-.37,0-.74-.04-1.1-.11-3.76-.71-5.9-4.73-4.61-8.33l5.8-11,5.81,11.02Z"/>
    <path class="cls-5" d="M170.78,250.45c-1.16,3.25.45,6.92,3.71,8.06.69.24,1.43.37,2.19.36.37,0,.74-.04,1.1-.11,3.76-.71,5.9-4.73,4.61-8.33-1.45-3.67-2.9-7.33-4.36-11-2.42,3.67-4.84,7.35-7.26,11.02Z"/>
    <path class="cls-14" d="M172.22,250.45c-1.16,3.25.45,6.92,3.71,8.06.69.24,1.43.37,2.19.36.37,0,.74-.04,1.1-.11,3.76-.71,5.9-4.73,4.61-8.33l-5.8-11-5.81,11.02Z"/>
  </g>
  <g>
    <path class="cls-14" d="M866.26,309.02c2.99,8.36-1.16,17.82-9.55,20.75-1.77.62-3.67.95-5.64.92-.96-.01-1.91-.11-2.83-.29-9.67-1.84-15.18-12.18-11.87-21.45l14.93-28.31,14.95,28.37Z"/>
    <g>
      <path class="cls-7" d="M398.25,267.35v-94.57h26.98v13.27h2.72l-6.33,6.68c1.41-2.93,3.54-6.03,6.42-9.32,2.87-3.28,6.49-6.11,10.85-8.48,4.36-2.37,9.51-3.56,15.42-3.56,2.46,0,4.64.21,6.55.62,1.9.41,3.3.85,4.17,1.32l-11.16,26.54c-.59-.29-1.63-.62-3.12-.97s-3.15-.53-4.97-.53c-2.23,0-4.5.4-6.81,1.19-2.32.79-4.45,2.04-6.42,3.74-1.96,1.7-3.55,3.82-4.75,6.37-1.2,2.55-1.8,5.58-1.8,9.1v48.6h-27.77Z"/>
      <path class="cls-7" d="M514.26,268.76c-10.25,0-19.13-2.07-26.63-6.2-7.5-4.13-13.29-9.84-17.36-17.14-4.07-7.29-6.11-15.66-6.11-25.09,0-9.96,2.14-18.59,6.42-25.88,4.28-7.29,9.96-12.95,17.05-16.96,7.09-4.01,14.85-6.02,23.29-6.02s15.51,1.88,22.1,5.62c6.59,3.75,11.82,8.94,15.69,15.56,3.87,6.62,5.8,14.33,5.8,23.12,0,2.34-.13,4.66-.4,6.94s-.6,4.39-1.01,6.33h-67.68v-17.4h43.51c0-3.87-.79-7.18-2.37-9.93-1.58-2.75-3.75-4.86-6.5-6.33-2.75-1.46-5.92-2.2-9.49-2.2-4.75,0-8.79,1.17-12.13,3.52-3.34,2.34-5.9,5.49-7.69,9.45-1.79,3.96-2.68,8.39-2.68,13.31,0,5.45,1.08,10.23,3.25,14.33,2.17,4.1,5.2,7.28,9.1,9.54,3.9,2.26,8.39,3.38,13.49,3.38,2.87,0,5.77-.32,8.7-.97,2.93-.64,5.62-1.49,8.09-2.55s4.42-2.14,5.89-3.25l8.61,20.74c-3.52,2.4-7.98,4.35-13.4,5.84-5.42,1.49-11.27,2.24-17.53,2.24Z"/>
      <path class="cls-7" d="M606.72,265.51c-4.98,0-9.93-.94-14.85-2.81-4.92-1.87-9.39-4.75-13.4-8.61-4.01-3.87-7.24-8.75-9.67-14.63-2.43-5.89-3.65-12.82-3.65-20.79,0-10.49,2.08-19.25,6.24-26.28,4.16-7.03,9.49-12.3,16-15.82s13.27-5.27,20.3-5.27c8.14,0,15.28,2.07,21.4,6.2,6.12,4.13,10.87,9.68,14.24,16.66,3.37,6.97,5.05,14.65,5.05,23.03s-1.8,16.77-5.41,24.13c-3.6,7.35-8.56,13.23-14.85,17.62-6.3,4.39-13.43,6.59-21.4,6.59ZM610.15,305.67c-7.85,0-15.04-.95-21.58-2.86-6.53-1.9-11.7-3.82-15.51-5.76l9.23-21.88c3.28,1.99,7.09,3.69,11.43,5.1,4.34,1.41,8.76,2.11,13.27,2.11,3.87,0,7.9-.63,12.08-1.89,4.19-1.26,7.73-3.28,10.63-6.06,2.9-2.78,4.35-6.43,4.35-10.94v-9.14h-2.81l4.13-8.96v-53.26l-6.86-10.28h6.42v-9.14h25.31v89.21c0,7.15-1.23,13.46-3.69,18.94-2.46,5.48-5.93,10.05-10.42,13.71-4.48,3.66-9.77,6.43-15.86,8.31-6.09,1.88-12.8,2.81-20.13,2.81ZM613.58,242.92c4.16,0,7.87-1.04,11.12-3.12,3.25-2.08,5.8-5.01,7.65-8.79s2.77-8.16,2.77-13.14-.91-9.35-2.72-12.92c-1.82-3.57-4.31-6.33-7.47-8.26s-6.77-2.9-10.81-2.9-7.95.97-11.21,2.9-5.82,4.7-7.69,8.31c-1.88,3.6-2.81,7.9-2.81,12.88s.91,9.27,2.72,13.05c1.82,3.78,4.31,6.72,7.47,8.83s6.83,3.16,10.99,3.16Z"/>
      <path class="cls-7" d="M716.15,265.51c-4.98,0-9.93-.94-14.85-2.81-4.92-1.87-9.39-4.75-13.4-8.61-4.01-3.87-7.24-8.75-9.67-14.63-2.43-5.89-3.65-12.82-3.65-20.79,0-10.49,2.08-19.25,6.24-26.28,4.16-7.03,9.49-12.3,16-15.82s13.27-5.27,20.3-5.27c8.14,0,15.28,2.07,21.4,6.2,6.12,4.13,10.87,9.68,14.24,16.66,3.37,6.97,5.05,14.65,5.05,23.03s-1.8,16.77-5.41,24.13c-3.6,7.35-8.56,13.23-14.85,17.62-6.3,4.39-13.43,6.59-21.4,6.59ZM719.58,305.67c-7.85,0-15.04-.95-21.58-2.86-6.53-1.9-11.7-3.82-15.51-5.76l9.23-21.88c3.28,1.99,7.09,3.69,11.43,5.1,4.34,1.41,8.76,2.11,13.27,2.11,3.87,0,7.9-.63,12.08-1.89,4.19-1.26,7.73-3.28,10.63-6.06,2.9-2.78,4.35-6.43,4.35-10.94v-9.14h-2.81l4.13-8.96v-53.26l-6.86-10.28h6.42v-9.14h25.31v89.21c0,7.15-1.23,13.46-3.69,18.94-2.46,5.48-5.93,10.05-10.42,13.71-4.48,3.66-9.77,6.43-15.86,8.31-6.09,1.88-12.8,2.81-20.13,2.81ZM723,242.92c4.16,0,7.87-1.04,11.12-3.12,3.25-2.08,5.8-5.01,7.65-8.79s2.77-8.16,2.77-13.14-.91-9.35-2.72-12.92c-1.82-3.57-4.31-6.33-7.47-8.26s-6.77-2.9-10.81-2.9-7.95.97-11.21,2.9-5.82,4.7-7.69,8.31c-1.88,3.6-2.81,7.9-2.81,12.88s.91,9.27,2.72,13.05c1.82,3.78,4.31,6.72,7.47,8.83s6.83,3.16,10.99,3.16Z"/>
      <path class="cls-7" d="M812.65,268.76c-5.51,0-10.12-1.22-13.84-3.65-3.72-2.43-6.52-5.64-8.39-9.62-1.88-3.98-2.81-8.38-2.81-13.18v-110.3h27.77v106.08c0,1.52.21,2.83.62,3.91.41,1.08,1.05,1.93,1.93,2.55s2.11.92,3.69.92c.94,0,1.71-.09,2.33-.26s1.13-.32,1.54-.44v21.8c-1.7.65-3.68,1.17-5.93,1.58-2.26.41-4.56.62-6.9.62Z"/>
      <path class="cls-7" d="M838.32,267.35v-94.57h27.77v94.57h-27.77Z"/>
      <path class="cls-7" d="M876.55,195.81v-23.03h65.48v23.03h-65.48ZM926.91,268.76c-11.6,0-20.26-3.24-25.97-9.71-5.71-6.47-8.57-14.78-8.57-24.92v-88.59h27.77v87.89c0,3.99.98,6.89,2.94,8.7,1.96,1.82,4.38,2.72,7.25,2.72,1.41,0,2.74-.18,4-.53,1.26-.35,2.39-.79,3.38-1.32l8.96,21.88c-2.64,1.29-5.7,2.26-9.18,2.9-3.49.64-7.02.97-10.59.97Z"/>
    </g>
    <path class="cls-7" d="M635.11,217.59c0,7.73,0,15.46,0,23.18l-12.43-17.66c4.14-1.84,8.28-3.68,12.42-5.52Z"/>
    <path class="cls-7" d="M744.53,217.59c0,7.73,0,15.46,0,23.18l-12.43-17.66c4.14-1.84,8.28-3.68,12.42-5.52Z"/>
  </g>
</svg>