<?xml version="1.0" encoding="UTF-8"?>
<svg id="Capa_1" xmlns="http://www.w3.org/2000/svg" xmlns:xlink="http://www.w3.org/1999/xlink" viewBox="0 0 764 293.79">
  <defs>
    <style>
      .cls-1 {
        fill: #030708;
      }

      .cls-2 {
        fill: url(#Degradado_sin_nombre_29);
      }
    </style>
    <linearGradient id="Degradado_sin_nombre_29" data-name="Degradado sin nombre 29" x1="578.12" y1="85.7" x2="576.86" y2="52.8" gradientUnits="userSpaceOnUse">
      <stop offset="0" stop-color="#ea003d"/>
      <stop offset="1" stop-color="#b3003d"/>
    </linearGradient>
  </defs>
  <g>
    <path class="cls-1" d="M82.86,200.84v-103.16h29.43v14.48h2.97l-6.9,7.29c1.53-3.2,3.87-6.58,7-10.16,3.13-3.58,7.08-6.66,11.84-9.25,4.76-2.59,10.37-3.88,16.83-3.88,2.68,0,5.06.22,7.14.67,2.08.45,3.6.93,4.55,1.44l-12.18,28.95c-.64-.32-1.77-.67-3.4-1.05s-3.44-.58-5.42-.58c-2.43,0-4.91.43-7.43,1.29-2.53.86-4.86,2.22-7,4.07-2.14,1.85-3.87,4.17-5.18,6.95-1.31,2.78-1.97,6.09-1.97,9.92v53.02h-30.3Z"/>
    <path class="cls-1" d="M209.42,202.37c-11.19,0-20.87-2.25-29.05-6.76-8.18-4.51-14.49-10.74-18.94-18.7-4.44-7.96-6.66-17.08-6.66-27.37,0-10.87,2.33-20.28,7-28.24,4.66-7.96,10.87-14.13,18.6-18.5,7.73-4.38,16.2-6.57,25.41-6.57s16.92,2.05,24.11,6.14c7.19,4.09,12.9,9.75,17.11,16.97,4.22,7.22,6.33,15.63,6.33,25.22,0,2.56-.14,5.08-.43,7.57s-.66,4.79-1.1,6.9h-73.83v-18.98h47.46c0-4.22-.86-7.83-2.59-10.83-1.73-3-4.09-5.3-7.09-6.9-3.01-1.6-6.46-2.4-10.35-2.4-5.18,0-9.59,1.28-13.23,3.84-3.64,2.56-6.44,5.99-8.39,10.31-1.95,4.31-2.92,9.16-2.92,14.52,0,5.94,1.18,11.15,3.55,15.63,2.36,4.48,5.67,7.94,9.92,10.4,4.25,2.46,9.16,3.69,14.72,3.69,3.13,0,6.29-.35,9.49-1.05,3.19-.7,6.14-1.63,8.82-2.78,2.68-1.15,4.82-2.33,6.42-3.55l9.4,22.63c-3.84,2.62-8.71,4.75-14.62,6.38-5.91,1.63-12.29,2.44-19.13,2.44Z"/>
    <path class="cls-1" d="M350.21,120.97c-2.51-5.2-5.73-9.68-9.65-13.43-1.81-1.74-3.77-3.32-5.88-4.74-6.68-4.51-14.46-6.76-23.34-6.76-7.67,0-15.06,1.92-22.15,5.75-7.1,3.84-12.91,9.59-17.45,17.26-4.54,7.67-6.81,17.23-6.81,28.67,0,8.69,1.33,16.25,3.98,22.67,2.65,6.42,6.17,11.75,10.55,15.96,4.37,4.22,9.25,7.36,14.62,9.4,5.37,2.05,10.77,3.07,16.2,3.07,8.69,0,16.48-2.4,23.35-7.19,2.16-1.51,4.17-3.17,6.03-4.99,4.08-3.98,7.47-8.73,10.17-14.24,3.93-8.02,5.9-16.79,5.9-26.31s-1.84-17.52-5.52-25.12ZM329.89,170.77c-3.55,2.27-7.59,3.41-12.13,3.41s-8.53-1.15-11.99-3.45c-3.45-2.3-6.16-5.52-8.15-9.64-1.98-4.12-2.97-8.87-2.97-14.24s1.02-10.11,3.07-14.04,4.84-6.95,8.39-9.06c3.55-2.11,7.62-3.17,12.22-3.17s8.35,1.06,11.8,3.17c3.45,2.11,6.17,5.11,8.15,9.01,1.94,3.83,2.93,8.43,2.97,13.79v25.29l-5.05-7.17c-1.73,2.49-3.83,4.52-6.31,6.1ZM341.06,97.57v9.97h-7l7.48,11.22v58.1l-4.51,9.78h3.07v9.97c0,4.93-1.58,8.9-4.75,11.94-3.16,3.04-7.03,5.24-11.6,6.62-4.57,1.37-8.96,2.06-13.18,2.06-4.92,0-9.75-.77-14.48-2.3-4.73-1.54-8.88-3.39-12.46-5.56l-10.07,23.87c4.15,2.11,9.79,4.2,16.92,6.28,7.13,2.07,14.97,3.11,23.54,3.11,7.99,0,15.31-1.02,21.96-3.06,6.64-2.05,12.41-5.07,17.3-9.06,4.89-4,8.68-8.98,11.36-14.96,2.69-5.98,4.03-12.86,4.03-20.66v-97.32h-27.61Z"/>
    <path class="cls-1" d="M469.58,120.97c-2.52-5.2-5.73-9.68-9.65-13.43-1.81-1.74-3.77-3.32-5.88-4.74-6.68-4.51-14.46-6.76-23.35-6.76-7.67,0-15.05,1.92-22.15,5.75-7.09,3.84-12.91,9.59-17.44,17.26-4.54,7.67-6.81,17.23-6.81,28.67,0,8.69,1.32,16.25,3.98,22.67,2.65,6.42,6.17,11.75,10.54,15.96,4.38,4.22,9.26,7.36,14.62,9.4,5.37,2.05,10.77,3.07,16.21,3.07,8.69,0,16.47-2.4,23.34-7.19,2.16-1.51,4.17-3.17,6.03-4.99,4.09-3.98,7.48-8.73,10.18-14.24,3.93-8.02,5.89-16.79,5.89-26.31s-1.83-17.52-5.51-25.12ZM449.25,170.77c-3.54,2.27-7.59,3.41-12.12,3.41s-8.54-1.15-11.99-3.45c-3.45-2.3-6.17-5.52-8.15-9.64-1.98-4.12-2.97-8.87-2.97-14.24s1.02-10.11,3.07-14.04c2.04-3.93,4.84-6.95,8.39-9.06,3.54-2.11,7.62-3.17,12.22-3.17s8.34,1.06,11.79,3.17c3.46,2.11,6.17,5.11,8.15,9.01,1.98,3.9,2.98,8.6,2.98,14.09,0,.3,0,.61,0,.91v.1c0,7.99,0,15.99,0,23.98l-5.06-7.18c-1.73,2.49-3.83,4.53-6.31,6.11ZM460.42,97.57v9.97h-6.99l7.47,11.22v58.1l-4.5,9.78h3.07v9.97c0,4.93-1.59,8.9-4.75,11.94-3.16,3.04-7.03,5.24-11.6,6.62-4.57,1.37-8.97,2.06-13.18,2.06-4.93,0-9.75-.77-14.48-2.3-4.73-1.54-8.89-3.39-12.47-5.56l-10.06,23.87c4.15,2.11,9.79,4.2,16.92,6.28,7.13,2.07,14.97,3.11,23.54,3.11,7.99,0,15.3-1.02,21.95-3.06,6.65-2.05,12.42-5.07,17.31-9.06,4.89-4,8.68-8.98,11.36-14.96,2.69-5.98,4.03-12.86,4.03-20.66v-97.32h-27.62Z"/>
    <path class="cls-1" d="M534.92,202.37c-6.01,0-11.04-1.33-15.1-3.98-4.06-2.65-7.11-6.15-9.16-10.5-2.05-4.35-3.07-9.14-3.07-14.38V53.18h30.3v115.72c0,1.66.22,3.09.67,4.27.45,1.18,1.15,2.11,2.11,2.78s2.3,1.01,4.03,1.01c1.02,0,1.87-.1,2.54-.29s1.23-.35,1.68-.48v23.78c-1.85.7-4.01,1.28-6.47,1.73-2.46.45-4.97.67-7.53.67Z"/>
    <path class="cls-1" d="M562.44,200.84v-103.16h30.3v103.16h-30.3Z"/>
    <path class="cls-1" d="M604.63,122.79v-25.12h71.43v25.12h-71.43ZM659.57,202.37c-12.66,0-22.1-3.53-28.33-10.59-6.23-7.06-9.35-16.12-9.35-27.18v-96.64h30.3v95.88c0,4.35,1.07,7.51,3.21,9.49,2.14,1.98,4.78,2.97,7.91,2.97,1.53,0,2.99-.19,4.36-.58,1.37-.38,2.6-.86,3.69-1.44l9.78,23.87c-2.88,1.41-6.22,2.46-10.02,3.16-3.8.7-7.66,1.05-11.55,1.05Z"/>
  </g>
  <path class="cls-2" d="M592.74,71.86v.03c-.04,6.33-3.81,12.31-10.02,14.5-1.69.59-3.5.91-5.37.88-.92-.01-1.82-.11-2.7-.28-7.34-1.41-12.16-8.01-12.22-15.14v-.02c0-.13,0-.25,0-.38.11-2.78,1.22-5.43,3.08-7.49l4.86-5.38,6.41-7.1c.42-.46,1.15-.46,1.57,0l6.36,7.06s0,0,0,0l4.94,5.48c1.92,2.13,3.03,4.88,3.08,7.76,0,.02,0,.04,0,.06Z"/>
</svg>