<?xml version="1.0" encoding="UTF-8"?>
<svg xmlns="http://www.w3.org/2000/svg" version="1.1" xmlns:xlink="http://www.w3.org/1999/xlink" viewBox="0 0 1200 800">
  <defs>
    <style>
      .cls-1 {
        fill: url(#Degradado_sin_nombre_6);
      }

      .cls-2 {
        fill: url(#Degradado_sin_nombre_5);
      }

      .cls-3 {
        clip-path: url(#clippath-6);
      }

      .cls-4 {
        clip-path: url(#clippath-7);
      }

      .cls-5 {
        fill: #842123;
      }

      .cls-6 {
        clip-path: url(#clippath-4);
      }

      .cls-7 {
        clip-path: url(#clippath-9);
      }

      .cls-8 {
        fill: #fff;
      }

      .cls-9 {
        fill: url(#Degradado_sin_nombre_43-2);
      }

      .cls-10 {
        fill: url(#Degradado_sin_nombre_43);
      }

      .cls-11 {
        fill: none;
      }

      .cls-12 {
        fill: url(#Degradado_sin_nombre_4);
      }

      .cls-13 {
        clip-path: url(#clippath-1);
      }

      .cls-14 {
        clip-path: url(#clippath-5);
      }

      .cls-15 {
        clip-path: url(#clippath-8);
      }

      .cls-16 {
        clip-path: url(#clippath-3);
      }

      .cls-17 {
        fill: #ea003d;
      }

      .cls-18 {
        fill: #ff5f82;
      }

      .cls-19 {
        clip-path: url(#clippath-2);
      }

      .cls-20 {
        fill: #030708;
      }

      .cls-21 {
        fill: #bbcfda;
      }

      .cls-22 {
        fill: url(#Degradado_sin_nombre_5-2);
      }

      .cls-23 {
        clip-path: url(#clippath);
      }

      .cls-24 {
        fill: #f9b7c5;
      }
    </style>
    <clipPath id="clippath">
      <path class="cls-11" d="M392.5,346.8c17.7,0,32.1,14.4,32.1,32.1s-14.4,32.1-32.1,32.1-32.1-14.4-32.1-32.1,14.4-32.1,32.1-32.1"/>
    </clipPath>
    <clipPath id="clippath-1">
      <rect class="cls-11" x="674.3" y="346.8" width="104.1" height="104.1"/>
    </clipPath>
    <clipPath id="clippath-2">
      <path class="cls-11" d="M236.8,346.8c17.7,0,32.1,14.4,32.1,32.1s-14.4,32.1-32.1,32.1-32.1-14.4-32.1-32.1,14.4-32.1,32.1-32.1"/>
    </clipPath>
    <clipPath id="clippath-3">
      <rect class="cls-11" x="421.6" y="346.8" width="104.1" height="104.1"/>
    </clipPath>
    <clipPath id="clippath-4">
      <path class="cls-11" d="M314.7,337.7c50.6,0,91.5,30.7,91.5,68.7s-41,68.7-91.5,68.7-91.5-30.7-91.5-68.7,41-68.7,91.5-68.7"/>
    </clipPath>
    <radialGradient id="Degradado_sin_nombre_5" data-name="Degradado sin nombre 5" cx="279.1" cy="641" fx="279.1" fy="641" r=".6" gradientTransform="translate(-88249.4 -142032) scale(317.3 222.1)" gradientUnits="userSpaceOnUse">
      <stop offset="0" stop-color="#feffff"/>
      <stop offset=".4" stop-color="#feffff"/>
      <stop offset=".5" stop-color="#f9fcfc"/>
      <stop offset=".6" stop-color="#edf3f5"/>
      <stop offset=".7" stop-color="#dee9ec"/>
      <stop offset=".7" stop-color="#d8e4e8"/>
      <stop offset=".8" stop-color="#ccd8df"/>
      <stop offset=".8" stop-color="#c8d5dd"/>
      <stop offset=".8" stop-color="#ccd6de"/>
      <stop offset=".8" stop-color="#d8dbe2"/>
      <stop offset=".9" stop-color="#ede3e9"/>
      <stop offset=".9" stop-color="#ffebef"/>
      <stop offset="1" stop-color="#ffebef"/>
    </radialGradient>
    <clipPath id="clippath-5">
      <path class="cls-11" d="M287.6,400.7c-.5,10.9-7.7,14.8-16.1,14.8s-14.8-5.9-14.3-16.8c.5-10.9,7.7-18,16.1-18s14.8,9.1,14.3,20Z"/>
    </clipPath>
    <radialGradient id="Degradado_sin_nombre_43" data-name="Degradado sin nombre 43" cx="270.2" cy="640.1" fx="270.2" fy="640.1" r=".6" gradientTransform="translate(-6890.8 -24370.3) scale(26.5 38.7)" gradientUnits="userSpaceOnUse">
      <stop offset="0" stop-color="#ff423d"/>
      <stop offset=".5" stop-color="#eb0749"/>
      <stop offset=".7" stop-color="#fc1e3d"/>
      <stop offset=".8" stop-color="#f43f57"/>
      <stop offset=".9" stop-color="#e53847"/>
      <stop offset="1" stop-color="#d4031f"/>
    </radialGradient>
    <clipPath id="clippath-6">
      <path class="cls-11" d="M341.8,400.7c.5,10.9,7.7,14.8,16.1,14.8s14.8-5.9,14.3-16.8c-.5-10.9-7.7-18-16.1-18s-14.8,9.1-14.3,20Z"/>
    </clipPath>
    <radialGradient id="Degradado_sin_nombre_43-2" data-name="Degradado sin nombre 43" cx="291.7" fx="291.7" r=".6" gradientTransform="translate(8091.1 -24370.3) rotate(-180) scale(26.5 -38.7)" xlink:href="#Degradado_sin_nombre_43"/>
    <clipPath id="clippath-7">
      <path class="cls-11" d="M314.7,452.6c11.1,0,21.8-.5,31.7-1.5,1.7-.2,2.8-1.9,2.1-3.5-5.5-13.2-18.6-22.5-33.8-22.5s-28.3,9.3-33.8,22.5c-.7,1.6.4,3.3,2.1,3.5,9.9,1,20.5,1.5,31.7,1.5h0Z"/>
    </clipPath>
    <radialGradient id="Degradado_sin_nombre_4" data-name="Degradado sin nombre 4" cx="283.1" cy="641.8" fx="283.1" fy="641.8" r=".6" gradientTransform="translate(26777.3 40019.4) rotate(-180) scale(93.5 61.7)" gradientUnits="userSpaceOnUse">
      <stop offset="0" stop-color="#172e35"/>
      <stop offset=".3" stop-color="#0e1c21"/>
      <stop offset=".7" stop-color="#030708"/>
      <stop offset="1" stop-color="#000"/>
    </radialGradient>
    <clipPath id="clippath-8">
      <path class="cls-11" d="M364.8,282.9c12.5,0,22.7,10.2,22.7,22.7s-10.2,22.7-22.7,22.7-22.7-10.2-22.7-22.7,10.2-22.7,22.7-22.7"/>
    </clipPath>
    <radialGradient id="Degradado_sin_nombre_5-2" data-name="Degradado sin nombre 5" cx="276.1" cy="641.5" fx="276.1" fy="641.5" r=".6" gradientTransform="translate(-22295.9 -51305.5) scale(82.1 80.4)" xlink:href="#Degradado_sin_nombre_5"/>
    <clipPath id="clippath-9">
      <path class="cls-11" d="M314.4,340.6c-2.7,0-4.9-1.1-4.9-2.9,0-20.4,16.6-36.9,36.9-36.9s4.9,2.2,4.9,4.9-2.2,4.9-4.9,4.9c-14.9,0-27.1,12.1-27.1,27.1s-2.2,2.9-4.9,2.9h0Z"/>
    </clipPath>
    <radialGradient id="Degradado_sin_nombre_6" data-name="Degradado sin nombre 6" cx="275.5" cy="641.1" fx="275.5" fy="641.1" r=".6" gradientTransform="translate(-18186.1 -42787.9) scale(67.3)" gradientUnits="userSpaceOnUse">
      <stop offset="0" stop-color="#7a9299"/>
      <stop offset=".5" stop-color="#7a9299"/>
      <stop offset=".7" stop-color="#172e35"/>
      <stop offset=".8" stop-color="#000"/>
      <stop offset=".8" stop-color="#172e35"/>
      <stop offset="1" stop-color="#172e35"/>
    </radialGradient>
  </defs>
  <!-- Generator: Adobe Illustrator 28.7.1, SVG Export Plug-In . SVG Version: 1.2.0 Build 142)  -->
  <g>
    <g id="Capa_1">
      <g>
        <path class="cls-17" d="M177.3,380.1c0,75.8,61.5,137.3,137.3,137.3s137.3-61.5,137.3-137.3-61.5-137.3-137.3-137.3-137.3,61.5-137.3,137.3"/>
        <g class="cls-23">
          <g class="cls-13">
            <image width="435" height="434" transform="translate(674.1 346.8) scale(.2)" xlink:href="regglit-logo-1.png"/>
          </g>
        </g>
        <g class="cls-19">
          <g class="cls-16">
            <image width="434" height="434" transform="translate(421.6 346.8) scale(.2)" xlink:href="regglit-logo-2.png"/>
          </g>
        </g>
        <g class="cls-6">
          <rect class="cls-2" x="223.2" y="337.7" width="183.1" height="137.3"/>
        </g>
        <path class="cls-5" d="M287.6,399.7c-.5,11.6-8.3,15.9-17.2,15.9s-15.8-6-15.3-17.6c.5-11.6,8.3-19.3,17.2-19.3s15.8,9.4,15.3,21.1Z"/>
        <path class="cls-5" d="M374.3,398c.5,11.6-6.3,17.6-15.3,17.6s-16.7-4.2-17.2-15.9c-.5-11.6,6.3-21.1,15.3-21.1s16.7,7.7,17.2,19.3Z"/>
        <g class="cls-14">
          <rect class="cls-10" x="256.7" y="380.7" width="31.5" height="34.8"/>
        </g>
        <g class="cls-3">
          <rect class="cls-9" x="341.3" y="380.7" width="31.5" height="34.8"/>
        </g>
        <path class="cls-24" d="M278.6,386.9c2,0,3.6,1.7,3.6,3.9s-1.6,3.9-3.6,3.9-3.6-1.7-3.6-3.9,1.6-3.9,3.6-3.9"/>
        <path class="cls-24" d="M363.2,386.9c2,0,3.6,1.7,3.6,3.9s-1.6,3.9-3.6,3.9-3.6-1.7-3.6-3.9,1.6-3.9,3.6-3.9"/>
        <path class="cls-21" d="M314.7,453.8c11.4,0,22.2-.5,32.3-1.5,1.7-.2,2.8-1.9,2.1-3.5-5.6-13.2-18.9-22.5-34.4-22.5s-28.8,9.3-34.4,22.5c-.7,1.6.4,3.3,2.1,3.5,10.1,1,20.9,1.5,32.3,1.5Z"/>
        <path class="cls-8" d="M314.7,451.3c11.3,0,22.2-.6,32.2-1.6,1.7-.2,2.8-2,2.1-3.5-5.6-13.4-18.9-22.8-34.3-22.8s-28.7,9.4-34.3,22.8c-.7,1.6.4,3.4,2.1,3.5,10,1,20.9,1.6,32.2,1.6Z"/>
        <g class="cls-4">
          <rect class="cls-12" x="280.3" y="425.1" width="68.9" height="27.5"/>
        </g>
        <g class="cls-15">
          <rect class="cls-22" x="342.1" y="282.9" width="45.4" height="45.4"/>
        </g>
        <g class="cls-7">
          <rect class="cls-1" x="309.5" y="300.8" width="41.8" height="39.8"/>
        </g>
        <path class="cls-18" d="M281.7,406.1c0,4.2-4.5,6.1-10,6.1s-10-1.9-10-6.1,4.5-7.6,10-7.6,10,3.4,10,7.6"/>
        <path class="cls-18" d="M367.8,406.1c0,4.2-4.5,6.1-10,6.1s-10-1.9-10-6.1,4.5-7.6,10-7.6,10,3.4,10,7.6"/>
        <path class="cls-5" d="M369.4,432.8c1.2,3.2-.5,6.9-3.7,8.1-.7.2-1.4.4-2.2.4-.4,0-.7,0-1.1-.1-3.8-.7-5.9-4.7-4.6-8.3,1.5-3.7,2.9-7.3,4.4-11,2.4,3.7,4.8,7.3,7.3,11Z"/>
        <path class="cls-17" d="M368,432.8c1.2,3.2-.5,6.9-3.7,8.1-.7.2-1.4.4-2.2.4-.4,0-.7,0-1.1-.1-3.8-.7-5.9-4.7-4.6-8.3l5.8-11,5.8,11Z"/>
        <path class="cls-5" d="M261.4,432.8c-1.2,3.2.5,6.9,3.7,8.1.7.2,1.4.4,2.2.4.4,0,.7,0,1.1-.1,3.8-.7,5.9-4.7,4.6-8.3-1.5-3.7-2.9-7.3-4.4-11-2.4,3.7-4.8,7.3-7.3,11Z"/>
        <path class="cls-17" d="M262.9,432.8c-1.2,3.2.5,6.9,3.7,8.1.7.2,1.4.4,2.2.4.4,0,.7,0,1.1-.1,3.8-.7,5.9-4.7,4.6-8.3l-5.8-11-5.8,11Z"/>
      </g>
      <g>
        <path class="cls-17" d="M956.9,491.4c3,8.4-1.2,17.8-9.5,20.8-1.8.6-3.7.9-5.6.9-1,0-1.9-.1-2.8-.3-9.7-1.8-15.2-12.2-11.9-21.4l14.9-28.3,15,28.4Z"/>
        <g>
          <path class="cls-20" d="M488.9,449.7v-94.6h27v13.3h2.7l-6.3,6.7c1.4-2.9,3.5-6,6.4-9.3,2.9-3.3,6.5-6.1,10.9-8.5,4.4-2.4,9.5-3.6,15.4-3.6s4.6.2,6.5.6c1.9.4,3.3.9,4.2,1.3l-11.2,26.5c-.6-.3-1.6-.6-3.1-1s-3.2-.5-5-.5-4.5.4-6.8,1.2c-2.3.8-4.5,2-6.4,3.7-2,1.7-3.5,3.8-4.7,6.4-1.2,2.5-1.8,5.6-1.8,9.1v48.6h-27.8Z"/>
          <path class="cls-20" d="M604.9,451.1c-10.3,0-19.1-2.1-26.6-6.2-7.5-4.1-13.3-9.8-17.4-17.1-4.1-7.3-6.1-15.7-6.1-25.1s2.1-18.6,6.4-25.9c4.3-7.3,10-12.9,17.1-17,7.1-4,14.9-6,23.3-6s15.5,1.9,22.1,5.6c6.6,3.8,11.8,8.9,15.7,15.6,3.9,6.6,5.8,14.3,5.8,23.1s-.1,4.7-.4,6.9-.6,4.4-1,6.3h-67.7v-17.4h43.5c0-3.9-.8-7.2-2.4-9.9-1.6-2.8-3.8-4.9-6.5-6.3-2.8-1.5-5.9-2.2-9.5-2.2s-8.8,1.2-12.1,3.5c-3.3,2.3-5.9,5.5-7.7,9.4-1.8,4-2.7,8.4-2.7,13.3s1.1,10.2,3.3,14.3c2.2,4.1,5.2,7.3,9.1,9.5,3.9,2.3,8.4,3.4,13.5,3.4s5.8-.3,8.7-1c2.9-.6,5.6-1.5,8.1-2.5s4.4-2.1,5.9-3.3l8.6,20.7c-3.5,2.4-8,4.4-13.4,5.8-5.4,1.5-11.3,2.2-17.5,2.2Z"/>
          <path class="cls-20" d="M697.4,447.8c-5,0-9.9-.9-14.9-2.8-4.9-1.9-9.4-4.7-13.4-8.6-4-3.9-7.2-8.7-9.7-14.6-2.4-5.9-3.6-12.8-3.6-20.8s2.1-19.2,6.2-26.3c4.2-7,9.5-12.3,16-15.8s13.3-5.3,20.3-5.3,15.3,2.1,21.4,6.2c6.1,4.1,10.9,9.7,14.2,16.7,3.4,7,5.1,14.6,5.1,23s-1.8,16.8-5.4,24.1c-3.6,7.4-8.6,13.2-14.9,17.6-6.3,4.4-13.4,6.6-21.4,6.6ZM700.8,488c-7.9,0-15-1-21.6-2.9-6.5-1.9-11.7-3.8-15.5-5.8l9.2-21.9c3.3,2,7.1,3.7,11.4,5.1,4.3,1.4,8.8,2.1,13.3,2.1s7.9-.6,12.1-1.9c4.2-1.3,7.7-3.3,10.6-6.1,2.9-2.8,4.4-6.4,4.4-10.9v-9.1h-2.8l4.1-9v-53.3l-6.9-10.3h6.4v-9.1h25.3v89.2c0,7.1-1.2,13.5-3.7,18.9-2.5,5.5-5.9,10-10.4,13.7-4.5,3.7-9.8,6.4-15.9,8.3-6.1,1.9-12.8,2.8-20.1,2.8ZM704.2,425.3c4.2,0,7.9-1,11.1-3.1,3.3-2.1,5.8-5,7.6-8.8s2.8-8.2,2.8-13.1-.9-9.3-2.7-12.9c-1.8-3.6-4.3-6.3-7.5-8.3s-6.8-2.9-10.8-2.9-8,1-11.2,2.9-5.8,4.7-7.7,8.3c-1.9,3.6-2.8,7.9-2.8,12.9s.9,9.3,2.7,13.1c1.8,3.8,4.3,6.7,7.5,8.8s6.8,3.2,11,3.2Z"/>
          <path class="cls-20" d="M806.8,447.8c-5,0-9.9-.9-14.9-2.8-4.9-1.9-9.4-4.7-13.4-8.6-4-3.9-7.2-8.7-9.7-14.6-2.4-5.9-3.6-12.8-3.6-20.8s2.1-19.2,6.2-26.3c4.2-7,9.5-12.3,16-15.8s13.3-5.3,20.3-5.3,15.3,2.1,21.4,6.2c6.1,4.1,10.9,9.7,14.2,16.7,3.4,7,5.1,14.6,5.1,23s-1.8,16.8-5.4,24.1c-3.6,7.4-8.6,13.2-14.9,17.6-6.3,4.4-13.4,6.6-21.4,6.6ZM810.2,488c-7.9,0-15-1-21.6-2.9-6.5-1.9-11.7-3.8-15.5-5.8l9.2-21.9c3.3,2,7.1,3.7,11.4,5.1,4.3,1.4,8.8,2.1,13.3,2.1s7.9-.6,12.1-1.9c4.2-1.3,7.7-3.3,10.6-6.1,2.9-2.8,4.4-6.4,4.4-10.9v-9.1h-2.8l4.1-9v-53.3l-6.9-10.3h6.4v-9.1h25.3v89.2c0,7.1-1.2,13.5-3.7,18.9-2.5,5.5-5.9,10-10.4,13.7-4.5,3.7-9.8,6.4-15.9,8.3-6.1,1.9-12.8,2.8-20.1,2.8ZM813.7,425.3c4.2,0,7.9-1,11.1-3.1,3.3-2.1,5.8-5,7.6-8.8s2.8-8.2,2.8-13.1-.9-9.3-2.7-12.9c-1.8-3.6-4.3-6.3-7.5-8.3s-6.8-2.9-10.8-2.9-8,1-11.2,2.9-5.8,4.7-7.7,8.3c-1.9,3.6-2.8,7.9-2.8,12.9s.9,9.3,2.7,13.1c1.8,3.8,4.3,6.7,7.5,8.8s6.8,3.2,11,3.2Z"/>
          <path class="cls-20" d="M903.3,451.1c-5.5,0-10.1-1.2-13.8-3.6-3.7-2.4-6.5-5.6-8.4-9.6-1.9-4-2.8-8.4-2.8-13.2v-110.3h27.8v106.1c0,1.5.2,2.8.6,3.9.4,1.1,1.1,1.9,1.9,2.5s2.1.9,3.7.9,1.7,0,2.3-.3,1.1-.3,1.5-.4v21.8c-1.7.6-3.7,1.2-5.9,1.6-2.3.4-4.6.6-6.9.6Z"/>
          <path class="cls-20" d="M929,449.7v-94.6h27.8v94.6h-27.8Z"/>
          <path class="cls-20" d="M967.2,378.1v-23h65.5v23h-65.5ZM1017.6,451.1c-11.6,0-20.3-3.2-26-9.7-5.7-6.5-8.6-14.8-8.6-24.9v-88.6h27.8v87.9c0,4,1,6.9,2.9,8.7,2,1.8,4.4,2.7,7.3,2.7s2.7-.2,4-.5c1.3-.4,2.4-.8,3.4-1.3l9,21.9c-2.6,1.3-5.7,2.3-9.2,2.9-3.5.6-7,1-10.6,1Z"/>
        </g>
        <path class="cls-8" d="M725.8,399.9c0,7.7,0,15.5,0,23.2l-12.4-17.7c4.1-1.8,8.3-3.7,12.4-5.5Z"/>
        <path class="cls-8" d="M835.2,399.9c0,7.7,0,15.5,0,23.2l-12.4-17.7c4.1-1.8,8.3-3.7,12.4-5.5Z"/>
      </g>
    </g>
  </g>
</svg>